# xmcd
# 
# Track frame offsets:
#     150
#     13907
#     31209
#     50888
#     66800
#     83907
#     100592
#     116797
#     130450
#     140947
#     159098
#     179754
# 
# Disc length: 2691
# 
# Revision: 2
# Processed by: cddbd v1.5.2PL0 Copyright (c) Steve Scherf et al.
# Submitted via: fre:ac v1.0.31
# 
DISCID=ae0a810c
DTITLE=Blues Traveler - Hurry Up and Hang Around
DYEAR=2018
DGENRE=Rock/Pop
TTITLE0=Accelerated Nation
TTITLE1=She Becomes My Way
TTITLE2=The Touch She Has
TTITLE3=When You Fall Down
TTITLE4=The Wolf Is Bumpin
TTITLE5=Daddy Went A Giggin
TTITLE6=Tangle Of Our Dreaming
TTITLE7=More Than Truth
TTITLE8=Prayer Upon The Wind
TTITLE9=Miss Olympus
TTITLE10=Phone Call From Leavenworth
TTITLE11=Owed From The Aspect
EXTD=
EXTT0=
EXTT1=
EXTT2=
EXTT3=
EXTT4=
EXTT5=
EXTT6=
EXTT7=
EXTT8=
EXTT9=
EXTT10=
EXTT11=
PLAYORDER=
